<mxfile host="app.diagrams.net" modified="2022-04-13T10:00:05.764Z" agent="5.0 (Windows NT 10.0; Win64; x64) AppleWebKit/537.36 (KHTML, like Gecko) Chrome/100.0.4896.88 Safari/537.36" etag="wDZIgdsFLQB-gict2o-I" version="17.1.3" type="github">
  <diagram id="sYIm-FBpVVB_H_eK_7hu" name="Page-1">
    <mxGraphModel dx="1865" dy="585" grid="1" gridSize="10" guides="1" tooltips="1" connect="1" arrows="1" fold="1" page="1" pageScale="1" pageWidth="827" pageHeight="1169" math="0" shadow="0">
      <root>
        <mxCell id="0" />
        <mxCell id="1" parent="0" />
        <mxCell id="kyPY1-G5gIehnB2PB7NY-1" value="" style="rounded=1;whiteSpace=wrap;html=1;fontSize=16;fontColor=#FFFFFF;fillColor=none;gradientColor=#ffffff;dashed=1;strokeWidth=2;strokeColor=#7EA6E0;" vertex="1" parent="1">
          <mxGeometry x="-10" y="730" width="826.79" height="400" as="geometry" />
        </mxCell>
        <mxCell id="kyPY1-G5gIehnB2PB7NY-19" value="GaitScheduler" style="rounded=1;whiteSpace=wrap;html=1;fillColor=#1ba1e2;strokeColor=#006EAF;horizontal=1;fontSize=16;fontColor=#ffffff;fontStyle=1" vertex="1" parent="1">
          <mxGeometry x="150" y="490" width="142.21" height="30" as="geometry" />
        </mxCell>
        <mxCell id="kyPY1-G5gIehnB2PB7NY-23" value="LegController" style="rounded=1;whiteSpace=wrap;html=1;fillColor=#1ba1e2;strokeColor=#006EAF;horizontal=1;fontSize=16;fontColor=#ffffff;fontStyle=1" vertex="1" parent="1">
          <mxGeometry x="426.21000000000004" y="490" width="170" height="30" as="geometry" />
        </mxCell>
        <mxCell id="kyPY1-G5gIehnB2PB7NY-31" value="Inverse Kinematic" style="rounded=1;whiteSpace=wrap;html=1;fillColor=#1ba1e2;strokeColor=#006EAF;horizontal=1;fontSize=16;fontColor=#ffffff;fontStyle=1" vertex="1" parent="1">
          <mxGeometry x="480" y="290" width="162.21" height="30" as="geometry" />
        </mxCell>
        <mxCell id="kyPY1-G5gIehnB2PB7NY-44" value="" style="edgeStyle=orthogonalEdgeStyle;rounded=0;orthogonalLoop=1;jettySize=auto;html=1;strokeWidth=2;fillColor=#d5e8d4;strokeColor=#82b366;exitX=1;exitY=0.5;exitDx=0;exitDy=0;entryX=0;entryY=0.5;entryDx=0;entryDy=0;" edge="1" parent="1" source="kyPY1-G5gIehnB2PB7NY-19" target="kyPY1-G5gIehnB2PB7NY-23">
          <mxGeometry relative="1" as="geometry">
            <mxPoint x="254.6000000000003" y="732.81" as="sourcePoint" />
            <mxPoint x="300" y="732.81" as="targetPoint" />
          </mxGeometry>
        </mxCell>
        <mxCell id="kyPY1-G5gIehnB2PB7NY-45" value="Kinematic model" style="rounded=1;whiteSpace=wrap;html=1;fillColor=#1ba1e2;strokeColor=#006EAF;horizontal=1;fontSize=16;fontColor=#ffffff;fontStyle=1" vertex="1" parent="1">
          <mxGeometry x="500" y="339.99999999999994" width="135" height="30" as="geometry" />
        </mxCell>
        <mxCell id="kyPY1-G5gIehnB2PB7NY-46" value="&lt;b&gt;步态基本信息&lt;br&gt;&lt;/b&gt;" style="text;html=1;resizable=0;autosize=1;align=center;verticalAlign=middle;points=[];fillColor=none;strokeColor=none;rounded=0;fontSize=16;" vertex="1" parent="1">
          <mxGeometry x="297.21000000000004" y="479.99999999999994" width="110" height="20" as="geometry" />
        </mxCell>
        <mxCell id="kyPY1-G5gIehnB2PB7NY-47" value="PlanningPosition" style="rounded=1;whiteSpace=wrap;html=1;fillColor=#1ba1e2;strokeColor=#006EAF;horizontal=1;fontSize=16;fontColor=#ffffff;fontStyle=1" vertex="1" parent="1">
          <mxGeometry x="70" y="300" width="142.21" height="30" as="geometry" />
        </mxCell>
        <mxCell id="kyPY1-G5gIehnB2PB7NY-49" value="" style="edgeStyle=orthogonalEdgeStyle;rounded=0;orthogonalLoop=1;jettySize=auto;html=1;strokeWidth=2;fillColor=#d5e8d4;strokeColor=#82b366;exitX=1;exitY=0.5;exitDx=0;exitDy=0;entryX=0;entryY=0.5;entryDx=0;entryDy=0;" edge="1" parent="1">
          <mxGeometry relative="1" as="geometry">
            <mxPoint x="212.21000000000004" y="314.5" as="sourcePoint" />
            <mxPoint x="346.21000000000004" y="314.5" as="targetPoint" />
          </mxGeometry>
        </mxCell>
      </root>
    </mxGraphModel>
  </diagram>
</mxfile>
